*******************************************************************************
                      Colonel Redl (Oberst Redl)  (1985)
*******************************************************************************

-------------------------------------------------------------------------------
                              General Information
-------------------------------------------------------------------------------
Type.................: Movie



Video Format.........: AVI
Video Bitrate........: 2093
Resolution...........: 20 x 548
Color................: 8 bit
FPS..................: 23.976
Source...............: DVD 4x3
Original Format......: NTSC
Genre................: War
IMDb Rating..........: 7.4
Movie Information....: http://www.imdb.com/title/tt0089716

-------------------------------------------------------------------------------
                               Post Information
-------------------------------------------------------------------------------
Posted by............: RadioResearch
Posted on............: 3/11/2013

-------------------------------------------------------------------------------
                                 Release Notes
-------------------------------------------------------------------------------
SEEDBOX SUPPORTED!

Oberst Redl (original title)
Set during the fading glory of the Austro-Hungarian empire, the film tells of 
the rise and fall of Alfred Redl (Brandauer), an ambitious young officer who 
proceeds up the ladder to become head of the Secret Police only to become 
ensnared in political deception. 

Stars:
Klaus-Maria Brandauer
Armin Stahl

In German with English subtitle files.

Such an excellent film dealing with military intelligence in the Austro-
Hungarian empire during WWI!  One of the few films dealing with WWI in the last 
30 years or so.  Excellent performances all around and it is really great to 
hear the Austrian German accents in the film.

Vivat Austria!  Viribus Unitis!

RadioResearch

General
Complete name                    : C:UsersDX-HOMEDownloadsCOLONEL_REDL
COLONEL_REDL.Rip.by.RadioResearch.avi
Format                           : AVI
Format/Info                      : Audio Video Interleave
Format profile                   : OpenDML
File size                        : 2.08 GiB
Duration                         : 2h 22mn
Overall bit rate                 : 2 093 Kbps
Movie name                       : COLONEL_REDL.Title1.DVDRip
Writing application              : Lavf52.78.4
Original source form/Name        : COLONEL_REDL

Video
ID                               : 0
Format                           : MPEG-4 Visual
Format profile                   : Advanced Simple@L5
Format settings, BVOP            : 2
Format settings, QPel            : No
Format settings, GMC             : No warppoints
Format settings, Matrix          : Default (H.263)
Muxing mode                      : Packed bitstream
Codec ID                         : XVID
Codec ID/Hint                    : XviD
Duration                         : 2h 22mn
Bit rate                         : 1 891 Kbps
Width                            : 720 pixels
Height                           : 548 pixels
Display aspect ratio             : 4:3
Frame rate                       : 23.976 fps
Color space                      : YUV
Chroma subsampling               : 4:2:0
Bit depth                        : 8 bits
Scan type                        : Progressive
Compression mode                 : Lossy
Bits/(Pixel*Frame)               : 0.200
Stream size                      : 1.88 GiB (90%)
Writing library                  : XviD 1.2.1 (UTC 2008-12-04)

Audio
ID                               : 1
Format                           : AC-3
Format/Info                      : Audio Coding 3
Mode extension                   : CM (complete main)
Codec ID                         : 2000
Duration                         : 2h 21mn
Bit rate mode                    : Constant
Bit rate                         : 192 Kbps
Channel(s)                       : 2 channels
Channel positions                : Front: L R
Sampling rate                    : 48.0 KHz
Bit depth                        : 16 bits
Compression mode                 : Lossy
Stream size                      : 195 MiB (9%)
Alignment                        : Aligned on interleaves
Interleave, duration             : 32 ms (0.77 video frame)
Interleave, preload duration     : 32 ms

General
Complete name                    : C:UsersDX-HOMEDownloadsCOLONEL_REDL
COLONEL_REDL.Rip.by.RadioResearch.idx
File size                        : 51.9 KiB

General
Complete name                    : C:UsersDX-HOMEDownloadsCOLONEL_REDL
COLONEL_REDL.Rip.by.RadioResearch.sub
Format                           : MPEG-PS
File size                        : 4.90 MiB
Duration                         : 2h 16mn
Overall bit rate                 : 5 002 bps

Text
ID                               : 189 (0xBD)-32 (0x20)
Format                           : RLE
Format/Info                      : Run-length encoding
Muxing mode                      : DVD-Video
Duration                         : 2h 16mn



-------------------------------------------------------------------------------
Generated with Cool NFO Creator - http://fly.to/coolbeans
-------------------------------------------------------------------------------
